<svg id="Layer_5" enable-background="new 0 0 64 64" height="512" viewBox="0 0 64 64" width="512" xmlns="http://www.w3.org/2000/svg"><g><path d="m63 23v-13.414l-8.586-8.586h-25.414v12h-21c-2.757 0-5 2.243-5 5v35h-2v1c0 4.963 4.038 9 9 9h44c4.962 0 9-4.037 9-9v-1h-2v-30zm-8-18.586 4.586 4.586h-4.586zm-23.586 24.586c.645 0 1.251-.251 1.707-.707l5.293-5.293h16.586v26h-46v-30h20v7.586c0 1.331 1.083 2.414 2.414 2.414zm-26.414-11c0-1.654 1.346-3 3-3h21v2h-20c-1.103 0-2 .897-2 2v30c0 1.103.897 2 2 2h46c1.103 0 2-.897 2-2v-26h2v30h-54zm34.816 37c-.414 1.161-1.514 2-2.816 2h-10c-1.302 0-2.402-.839-2.816-2zm14.184 6h-44c-3.521 0-6.442-2.612-6.929-6h19.03c.465 2.279 2.484 4 4.899 4h10c2.414 0 4.434-1.721 4.899-4h19.03c-.487 3.388-3.408 6-6.929 6zm-16.414-40-5.879 5.879c-.238.238-.707.045-.707-.293v-23.586h22v8h8v10z"/><path d="m43 5h-10v6h10zm-2 4h-6v-2h6z"/><path d="m45 5h6v2h-6z"/><path d="m45 9h6v2h-6z"/><path d="m33 13h2v2h-2z"/><path d="m37 13h22v2h-22z"/><path d="m33 17h26v2h-26z"/><path d="m11 35h16v-14h-16zm2-12h12v10h-12z"/><path d="m29 47h24v-12h-24zm2-10h20v8h-20z"/><path d="m51 31h2v2h-2z"/><path d="m37 31h12v2h-12z"/><path d="m37 27h16v2h-16z"/><path d="m11 37h2v2h-2z"/><path d="m15 37h12v2h-12z"/><path d="m11 41h16v2h-16z"/><path d="m11 45h16v2h-16z"/></g></svg>